<?xml version="1.0" encoding="UTF-8"?>
<!DOCTYPE svg PUBLIC "-//W3C//DTD SVG 1.1//EN" "http://www.w3.org/Graphics/SVG/1.1/DTD/svg11.dtd">
<!-- Creator: CorelDRAW 2019 (64-Bit) -->
<svg xmlns="http://www.w3.org/2000/svg" xml:space="preserve" width="210mm" height="297mm" version="1.1" style="shape-rendering:geometricPrecision; text-rendering:geometricPrecision; image-rendering:optimizeQuality; fill-rule:evenodd; clip-rule:evenodd"
viewBox="0 0 21000 29700"
 xmlns:xlink="http://www.w3.org/1999/xlink"
 xmlns:xodm="http://www.corel.com/coreldraw/odm/2003">
 <defs>
  <style type="text/css">
   <![CDATA[
    .str0 {stroke:#5C793F;stroke-width:105.83;stroke-miterlimit:22.9256}
    .fil0 {fill:#5C793F}
   ]]>
  </style>
 </defs>
 <g id="Layer_x0020_1">
  <metadata id="CorelCorpID_0Corel-Layer"/>
  <path class="fil0 str0" d="M16400.82 14462.27l-219.14 -0.01 -0.65 -3401.79c-280.82,-24.84 -481.64,33.71 -800.49,-28.94 -260.78,-51.25 -450.17,-149.49 -614.58,-289.35 -139.16,-118.37 -251.43,-305.92 -357.35,-519.72 -79.55,-160.56 -277.64,-474.89 -224.94,-651.55 176.31,-65.11 636.2,-0.43 862.38,11.35 274.99,14.33 550.32,27.25 770.68,135.97 447.9,221.01 576.83,719.14 609.95,1196.44 47.9,-36.14 187.89,-227.15 240.94,-294.53 95.56,-121.38 146.94,-192.01 267.99,-291.37 205.29,-168.51 407.27,-287.08 732.66,-387.88 415.06,-128.6 1044.19,-153.25 1507.47,-172.4 193.09,-7.98 337.09,-61.95 452.85,50.44l0 79.1c-187.75,247.28 -432.55,1091.33 -1050.26,1645.23 -483.03,433.14 -1371.68,484.35 -2177.45,393.13l-0.06 2525.88zm35.95 -3052.9c-12.27,-206.89 584.52,-965.29 1010.55,-1154.85 427.33,-190.14 1344.36,-296.93 1880.07,-267.52 -124.36,258.84 -253.2,516.02 -398.96,760.87 -577.15,969.53 -1194.75,1090.98 -2404.55,981.24 9.31,-91.85 172.25,-297.75 226.53,-361.45 163.56,-191.95 524.6,-365.1 785.74,-438.35 130.13,-36.51 407.23,-35.58 414.07,-177.05 12.85,-266.13 -787.77,70.77 -875.79,115.1 -321.25,161.79 -430.85,312.16 -637.66,542.01zm-369.46 -619.06c-1240.97,109.59 -1269.92,-509.93 -1544.15,-957.98 169.88,-20.34 865.05,31.81 1026.9,73.37 284.81,73.14 442.29,284.54 531.19,561.94 -154.85,-72.68 -362.84,-195.67 -538.52,-120.79l5.94 150.76c155.72,79.71 506.59,129.8 518.64,292.7z"/>
  <path class="fil0" d="M2967.94 12107.37c178.73,308.44 705.95,1746.28 870.86,1875.97l282.18 0c100.23,-24.01 181.76,-298.81 254.53,-464.27 72.63,-165.13 138.55,-308.5 204.55,-465.24l395.69 -881.95 128.51 2292.15 359.9 -0.03 -112.97 -3067.07 -427.68 -1.69c-46.5,162.34 -859.54,2028.98 -943.62,2120.79 -233.91,-321.25 -788.73,-2005.12 -987.7,-2122.98l-373.1 15.39 -111.83 3054.71 360.82 -16.67 99.86 -2339.11z"/>
  <path class="fil0" d="M8902.53 11732.35c543.33,-76.92 1203.63,-45.22 1202.13,544.55 -1.54,604.3 -648.97,609.57 -1208.45,547.01l6.32 -1091.56zm1078.27 1325.19c588.82,-349.04 603.46,-989.39 281.95,-1348.43 -371.74,-415.12 -1058.96,-340.19 -1728.28,-309.55l-0.02 3062.57 361.64 1.9 0.08 -1312.72 789.25 20.74c243.37,286.54 365.21,1073.52 574.9,1355.53l324.44 -90.01 -404.47 -1093.59c-87.63,-218.34 -80.96,-132.52 -199.49,-286.44z"/>
  <path class="fil0" d="M14421.34 11818.91l456.05 1415.92 -939.52 -14.67 483.47 -1401.25zm-586.96 1741.15l1144.26 0c87.94,166.92 231.44,823.67 359.27,903.97l327.22 -2.57 -1028.38 -3067.59 -450.78 11.25 -1024.1 3055.16 369.93 -1.6 302.58 -898.62z"/>
  <polygon class="fil0" points="6548.3,11717.7 7851.14,11708.26 7851.13,11395.55 6179.98,11408.38 6179.96,14462.56 7939.26,14464.03 7939.32,14137.87 6543.11,14137.88 6548.3,13093.11 7608.67,13088.36 7608.67,12767.37 6542.33,12766.59 "/>
  <path class="fil0" d="M12939.32 14031.99c-1753.54,863.34 -1969.09,-1612.28 -1200.45,-2215.56 402.3,-315.74 798.92,-120.1 1178.32,6.47 39.81,-108.08 90.29,-183.31 88.17,-313.02 -1243.75,-602.14 -2078.38,217.59 -2034.91,1509.27 32.51,965.81 495.45,1563.83 1403.44,1513.22 252.52,-14.08 527.42,-94.92 726.38,-247.88l-160.95 -252.5z"/>
 </g>
</svg>
